<?xml version="1.0" encoding="utf-8" ?>
<svg xmlns="http://www.w3.org/2000/svg" xmlns:xlink="http://www.w3.org/1999/xlink" width="642" height="295">
	<path fill="#68308C" d="M0 0L641.451 0C642.215 1.16222 641.997 2.89236 641.998 4.23482L642.001 220.502L642.003 274.412C642.003 278.388 642.528 291.158 641.881 294.088C641.808 294.421 641.646 294.723 641.451 295L0 295L0 0Z"/>
	<path fill="#FCCB31" d="M105.941 97.9337Q107.672 97.7721 109.408 97.6911Q111.144 97.61 112.883 97.6096Q114.621 97.6091 116.357 97.6894Q118.094 97.7696 119.825 97.9303Q121.555 98.091 123.277 98.3318Q124.998 98.5727 126.707 98.8932Q128.415 99.2136 130.107 99.613Q131.799 100.012 133.47 100.49Q135.142 100.967 136.789 101.522Q138.437 102.076 140.056 102.707Q141.676 103.337 143.265 104.042Q144.854 104.747 146.409 105.524Q147.963 106.302 149.48 107.151Q150.997 108 152.473 108.919Q153.949 109.838 155.38 110.824Q156.812 111.81 158.196 112.861C173.727 124.791 184.827 143.119 187.338 162.644C190.025 183.539 185.548 204.093 172.52 220.952C159.594 237.681 141.627 247.475 120.765 250.144L120.039 250.208C99.8937 251.924 80.4616 246.748 64.8602 233.565Q63.4363 232.365 62.0728 231.096Q60.7094 229.828 59.4097 228.494Q58.11 227.161 56.8772 225.765Q55.6444 224.369 54.4814 222.915Q53.3183 221.461 52.2279 219.951Q51.1376 218.441 50.1224 216.88Q49.1072 215.319 48.1697 213.71Q47.2322 212.101 46.3746 210.448Q45.517 208.795 44.7414 207.102Q43.9658 205.409 43.274 203.68Q42.5822 201.951 41.9759 200.19Q41.3696 198.429 40.8503 196.641Q40.3309 194.852 39.8998 193.041Q39.4686 191.229 39.1267 189.398Q38.7848 187.568 38.5329 185.722Q38.281 183.877 38.1198 182.022C36.3932 161.194 42.0378 140.434 55.715 124.381C68.1443 109.793 86.7707 99.4833 105.941 97.9337Z"/>
	<path fill="#68308C" d="M110.612 129.922C122.391 129.855 132.74 132.372 142.049 139.972Q142.903 140.659 143.722 141.387Q144.541 142.115 145.323 142.882Q146.106 143.649 146.85 144.453Q147.593 145.258 148.297 146.098Q149.001 146.938 149.663 147.811Q150.324 148.684 150.942 149.589Q151.561 150.494 152.134 151.428Q152.707 152.362 153.234 153.322Q153.76 154.283 154.239 155.269Q154.719 156.254 155.149 157.262Q155.579 158.27 155.96 159.297Q156.34 160.325 156.67 161.37Q156.999 162.415 157.278 163.475Q157.556 164.534 157.782 165.607Q158.008 166.679 158.181 167.761Q158.354 168.843 158.474 169.932C159.758 182.711 156.624 194.887 148.411 204.888C139.87 215.288 128.729 220.633 115.469 221.936C103.38 222.232 92.2538 219.136 83.072 211.007C73.554 202.579 67.6973 191.475 66.92 178.726C66.1762 166.526 69.785 154.733 77.9625 145.54C86.164 136.32 98.3253 130.642 110.612 129.922Z"/>
	<path fill="#68308C" d="M53.6678 151.941C54.2328 151.915 54.8204 151.892 55.3779 152.002C57.161 152.356 59.1386 153.489 60.1295 155.042C60.4466 155.539 60.7585 156.131 60.7827 156.728C60.9073 159.81 60.0367 163.119 59.5771 166.166Q58.8106 171.124 58.795 176.14C58.7656 178.729 58.7599 181.284 59.1757 183.846C59.8224 187.832 62.8471 194.976 62.0248 198.57C61.606 200.4 60.154 201.399 58.653 202.338C57.9549 202.443 57.2139 202.575 56.5073 202.556C55.3354 202.524 54.4269 201.966 53.6611 201.11C48.8214 195.702 47.7126 179.232 48.0175 172.181C48.2974 165.709 48.6343 156.546 53.6678 151.941Z"/>
	<path fill="#68308C" d="M169.426 151.741C170.102 151.75 170.853 151.746 171.497 151.968C173.296 152.589 174.495 154.417 175.241 156.069C179.577 165.661 178.507 187.138 174.781 196.997C173.862 199.427 172.859 201.325 170.4 202.437C169.728 202.408 169.043 202.371 168.389 202.21C167.071 201.885 165.999 201.245 165.292 200.059C163.287 196.694 165.434 191.465 166.157 187.913Q166.951 184.191 167.205 180.394Q167.459 176.597 167.167 172.802C166.851 168.875 164.022 159.088 164.899 156.016C165.504 153.9 167.62 152.72 169.426 151.741Z"/>
	<path fill="#FCCB31" d="M533.666 102.356C553.036 101.637 571.212 108.057 585.592 121.201C600.138 134.496 608.191 152.801 609.066 172.412C609.952 192.28 604.023 211.249 590.412 226.04C576.753 240.884 558.375 249.25 538.268 250.05L538.101 250.061C519.831 251.074 501.598 243.504 488.078 231.536Q486.761 230.357 485.502 229.115Q484.243 227.873 483.046 226.572Q481.849 225.27 480.717 223.913Q479.584 222.555 478.518 221.144Q477.453 219.733 476.457 218.272Q475.461 216.811 474.536 215.304Q473.612 213.796 472.762 212.246Q471.912 210.696 471.138 209.106Q470.364 207.516 469.668 205.891Q468.972 204.265 468.355 202.608Q467.739 200.951 467.203 199.266Q466.667 197.581 466.214 195.872Q465.761 194.163 465.39 192.434Q465.02 190.705 464.734 188.96Q464.448 187.215 464.247 185.458Q464.046 183.701 463.93 181.937C462.705 161.707 468.29 142.359 481.914 127.021C495.307 111.943 513.609 103.517 533.666 102.356Z"/>
	<path fill="#68308C" d="M534.318 131.825C546.431 131.491 558.16 134.89 567.116 143.337C576.032 151.747 580.523 163.001 580.864 175.143C581.2 187.122 577.308 198.591 568.993 207.34C560.527 216.247 549.773 221.008 537.534 221.301C526.335 221.735 515.567 217.545 507.168 210.219Q506.346 209.515 505.559 208.772Q504.773 208.028 504.024 207.246Q503.275 206.465 502.565 205.647Q501.856 204.83 501.188 203.978Q500.52 203.126 499.894 202.243Q499.269 201.359 498.688 200.446Q498.108 199.532 497.572 198.591Q497.037 197.65 496.549 196.684Q496.062 195.717 495.622 194.728Q495.183 193.739 494.792 192.729Q494.402 191.72 494.062 190.692Q493.723 189.664 493.434 188.621Q493.145 187.578 492.908 186.521Q492.672 185.465 492.487 184.398Q492.303 183.332 492.172 182.257Q492.04 181.183 491.962 180.103C491.171 168.396 494.296 156.913 502.091 147.994C510.58 138.282 521.467 132.687 534.318 131.825Z"/>
	<path fill="#68308C" d="M540.46 109.567Q540.736 109.526 541.015 109.504C552.705 108.53 570.519 117.331 579.238 124.929Q580.45 126.002 581.609 127.133Q582.768 128.263 583.871 129.448Q584.974 130.633 586.018 131.869Q587.063 133.106 588.047 134.392Q589.031 135.677 589.952 137.009Q590.872 138.34 591.728 139.715Q592.583 141.089 593.372 142.503Q594.16 143.917 594.879 145.367Q595.598 146.818 596.247 148.301Q596.895 149.784 597.472 151.297Q598.048 152.81 598.551 154.349Q599.053 155.888 599.481 157.449Q599.909 159.01 600.262 160.591Q600.614 162.171 600.889 163.766Q601.165 165.361 601.364 166.968Q601.562 168.575 601.683 170.189C602.366 180.085 600.426 201.141 593.771 208.527C592.845 209.556 592.114 209.48 590.824 209.534C590.703 209.509 590.581 209.483 590.46 209.451C588.525 208.94 586.583 207.875 585.582 206.077C584.153 203.507 588.453 193.608 589.28 190.461C593.243 175.392 590.538 159.158 582.676 145.787C576.83 135.844 565.642 126.41 554.496 123.115C550.194 121.844 545.782 121.57 541.497 120.433C539.751 119.97 537.984 119.04 537.069 117.417C536.419 116.263 536.274 114.759 536.634 113.488C537.177 111.574 538.81 110.472 540.46 109.567Z"/>
	<path fill="#68308C" d="M480.005 147.5C481.81 147.406 483.261 147.834 484.666 149.021C485.84 150.013 486.254 151.279 486.23 152.785C486.179 155.978 484.796 159.447 484.008 162.552Q483.398 164.869 482.983 167.228Q482.569 169.588 482.352 171.973Q482.136 174.359 482.119 176.755Q482.102 179.15 482.285 181.539C483.162 194.005 489.029 207.026 498.141 215.633C501.356 218.67 505.089 221.04 508.348 223.969C509.533 225.034 510.529 226.4 510.567 228.05C510.603 229.606 509.883 230.963 508.809 232.047C507.759 233.109 507.038 233.283 505.557 233.295C505.397 233.268 505.247 233.24 505.089 233.2C496.238 230.937 484.772 217.469 480.423 209.984C470.931 193.647 469.239 174.711 474.104 156.629C475.168 152.674 476.308 149.638 480.005 147.5Z"/>
	<path fill="#FCCB31" d="M262.149 127.496C252.311 127.872 242.371 127.595 232.521 127.611C226.065 127.622 218.02 128.321 211.825 127.192C210.052 126.869 208.472 126.019 207.156 124.789C205.146 122.911 203.845 120.188 203.787 117.425C203.727 114.609 204.955 111.57 206.921 109.555C210.498 105.892 215.989 106.203 220.695 106.21L363.192 106.261L407.879 106.208C415.662 106.205 423.889 105.644 431.606 106.493C433.309 106.681 435.238 108.095 436.407 109.284C438.501 111.411 439.565 114.285 439.481 117.258Q439.468 117.807 439.4 118.351Q439.333 118.896 439.211 119.431Q439.09 119.966 438.916 120.486Q438.741 121.007 438.516 121.507Q438.292 122.008 438.018 122.483Q437.744 122.959 437.425 123.405Q437.105 123.851 436.743 124.263Q436.381 124.675 435.979 125.049C434.469 126.447 432.577 127.265 430.556 127.587C425.233 128.436 418.42 127.757 412.953 127.741L376.67 127.622C377.111 128.324 377.176 128.937 377.204 129.751C377.492 137.9 377.332 146.125 377.364 154.283L377.423 205.603L377.53 225.156C377.566 229.301 378.124 234.124 377.158 238.165C376.493 240.949 374.824 243.093 372.37 244.545C369.748 246.098 367.084 246.862 364.061 246.017C360.863 245.123 358.079 242.774 356.531 239.851C354.464 235.949 355.283 218.399 355.259 213.026L355.189 157.165C355.189 148.099 355.567 138.846 355.164 129.8C355.128 128.985 355.109 128.319 354.656 127.61C337.351 127.262 319.975 127.661 302.66 127.656C298.221 127.655 287.662 128.206 283.725 127.518L282.45 127.594C276.208 127.99 269.636 127.705 263.376 127.532L262.149 127.496Z"/>
	<path fill="#68308C" d="M262.149 127.496L263.376 127.532C269.636 127.705 276.208 127.99 282.45 127.594L283.725 127.518L283.897 132.81C284.195 145.026 284.028 157.28 284.036 169.503L284.006 227.735C284.193 232.338 284.944 238.734 281.606 242.442C280.964 243.155 280.17 243.765 279.422 244.364C277.478 245.719 275.801 246.546 273.381 246.551C270.444 246.556 267.443 245.287 265.379 243.202Q264.861 242.687 264.426 242.1Q263.991 241.514 263.649 240.869Q263.307 240.223 263.065 239.534Q262.823 238.845 262.688 238.127C261.543 231.981 262.159 224.874 262.155 218.597L262.184 182.88Q261.997 155.189 262.149 127.496Z"/>
	<path fill="#FAC675" d="M262.149 127.496L263.376 127.532Q263.594 143.345 263.535 159.159C263.541 164.753 263.88 170.482 263.577 176.061C263.748 190.182 263.646 204.314 263.657 218.436C263.661 224.065 263.023 232.551 264.05 237.843C264.362 239.456 265.461 241.022 266.61 242.164Q266.92 242.477 267.26 242.757Q267.6 243.038 267.966 243.283Q268.332 243.527 268.721 243.734Q269.11 243.941 269.517 244.108Q269.925 244.275 270.347 244.4Q270.769 244.525 271.202 244.608Q271.635 244.69 272.074 244.728Q272.513 244.767 272.953 244.761C275.475 244.729 277.495 243.732 279.547 242.36L279.422 244.364C277.478 245.719 275.801 246.546 273.381 246.551C270.444 246.556 267.443 245.287 265.379 243.202Q264.861 242.687 264.426 242.1Q263.991 241.514 263.649 240.869Q263.307 240.223 263.065 239.534Q262.823 238.845 262.688 238.127C261.543 231.981 262.159 224.874 262.155 218.597L262.184 182.88Q261.997 155.189 262.149 127.496Z"/>
	<path fill="#FAC675" d="M282.528 143.64L282.975 142.024L283.068 142.068C284.144 139.62 283.781 135.501 283.897 132.81C284.195 145.026 284.028 157.28 284.036 169.503L284.006 227.735C284.193 232.338 284.944 238.734 281.606 242.442C280.964 243.155 280.17 243.765 279.422 244.364L279.547 242.36C280.342 241.559 281.157 240.75 281.632 239.71C283.43 235.771 282.618 227.932 282.61 223.543C282.641 202.755 282.187 181.831 282.717 161.058C282.007 156.829 282.533 148.284 282.528 143.64Z"/>
	<path fill="#FCCB31" d="M282.717 161.058C283.88 166.196 283.481 172.371 283.57 177.641C283.836 193.414 283.076 209.295 283.633 225.044L282.61 223.543C282.641 202.755 282.187 181.831 282.717 161.058Z"/>
	<path fill="#FCCB31" d="M282.45 127.594L283.725 127.518L283.897 132.81C283.781 135.501 284.144 139.62 283.068 142.068L282.975 142.024L282.528 143.64L282.45 127.594Z"/>
	<path fill="#FDFAFC" d="M181.386 56.8132C185.198 56.4122 189.545 57.3212 192.762 59.4253C196.377 61.79 199.389 65.8393 200.239 70.1092C201.12 74.5309 200.327 79.9683 197.796 83.7478C194.956 87.99 190.486 90.2438 185.597 91.2088C181.085 91.8384 176.678 91.2363 172.871 88.5837C169.14 85.9842 166.782 81.8891 165.992 77.4437Q165.828 76.553 165.754 75.6506Q165.679 74.7481 165.693 73.8427Q165.707 72.9373 165.811 72.0376Q165.915 71.138 166.107 70.253Q166.298 69.368 166.577 68.5063Q166.855 67.6445 167.217 66.8144Q167.578 65.9842 168.02 65.1938Q168.462 64.4035 168.98 63.6605C172.078 59.2981 176.281 57.6784 181.386 56.8132Z"/>
	<path fill="#68308C" d="M182.347 63.7591C184.572 63.8183 186.523 64.1536 188.44 65.3482Q188.866 65.6133 189.263 65.9205Q189.66 66.2277 190.023 66.5739Q190.386 66.92 190.712 67.3015Q191.039 67.683 191.324 68.0958Q191.609 68.5086 191.851 68.9484Q192.093 69.3882 192.288 69.8503Q192.484 70.3125 192.631 70.7923Q192.778 71.272 192.876 71.7643Q192.987 72.3023 193.046 72.8486Q193.104 73.3949 193.109 73.9443Q193.114 74.4936 193.065 75.0409Q193.016 75.5881 192.914 76.128Q192.812 76.6678 192.658 77.1951Q192.504 77.7225 192.299 78.2322Q192.094 78.742 191.841 79.2294Q191.587 79.7167 191.287 80.177C189.494 82.8713 187.001 84.1049 183.934 84.7228C181.348 84.7112 179.133 84.4204 177.01 82.8036C174.763 81.0913 173.524 78.4995 173.201 75.7296C172.858 72.794 173.519 69.6628 175.379 67.321C177.216 65.0086 179.515 64.0957 182.347 63.7591Z"/>
	<path fill="#FDFAFC" d="M71.1207 65.5675C73.8899 65.3874 76.1389 65.5283 78.6554 66.8234Q79.196 67.1002 79.7069 67.4287Q80.2177 67.7573 80.6938 68.1344Q81.1699 68.5116 81.6067 68.9337Q82.0434 69.3557 82.4367 69.8187Q82.8299 70.2816 83.1757 70.7809Q83.5215 71.2802 83.8167 71.8111Q84.1118 72.342 84.3534 72.8993Q84.5949 73.4566 84.7806 74.0349C85.8498 77.4159 85.635 81.266 83.9726 84.413C82.4108 87.3693 79.7752 90.0117 76.5021 90.9465C72.5942 92.0625 69.4797 90.3957 66.1865 88.5249C65.6934 89.1712 65.8152 90.2211 65.7896 91.0096L65.6977 99.9724L60.1769 99.9227C59.7392 88.7437 59.8427 77.3109 60.1032 66.126C61.2393 66.1124 64.8363 65.33 65.3971 66.5241C65.7003 67.1696 65.3805 67.5698 66.0442 68.0756C67.6666 67.7464 69.2141 66.2435 70.8577 65.6585L71.1207 65.5675Z"/>
	<path fill="#68308C" d="M70.8515 70.9117C72.1587 70.8125 73.5117 70.867 74.7493 71.3311Q75.1096 71.4666 75.4545 71.6373Q75.7995 71.8081 76.1256 72.0124Q76.4518 72.2167 76.756 72.4525Q77.0602 72.6884 77.3394 72.9534Q77.6185 73.2183 77.8699 73.5099Q78.1212 73.8014 78.3422 74.1165Q78.5632 74.4316 78.7517 74.7673Q78.9401 75.1029 79.0942 75.4556C79.9229 77.3705 79.993 79.6284 79.1979 81.565C78.2315 83.9194 76.5425 84.9703 74.2816 85.9079C72.9209 86.0557 71.5409 86.1433 70.2225 85.6972Q69.9016 85.5872 69.5934 85.4454Q69.2852 85.3036 68.9929 85.1315Q68.7005 84.9595 68.427 84.7588Q68.1535 84.5582 67.9015 84.331Q67.6496 84.1038 67.4218 83.8524Q67.194 83.6011 66.9926 83.328Q66.7913 83.055 66.6185 82.7631Q66.4457 82.4711 66.3031 82.1633C65.3277 80.0519 65.2597 77.356 66.1243 75.1984C67.0559 72.8737 68.6079 71.8352 70.8515 70.9117Z"/>
	<path fill="#FDFAFC" d="M96.3503 65.5861C100.668 65.3521 102.666 66.948 106.464 68.2956L106.811 67.9786L106.572 66.833L106.901 66.375C108.511 65.8323 110.52 66.0945 112.205 66.131C112.717 69.6278 112.484 73.3136 112.469 76.8457Q112.447 83.9572 112.522 91.0677C110.877 91.1256 108.814 91.4479 107.276 90.7976C106.448 89.967 106.575 89.5057 106.452 88.3629C105.177 89.2064 103.847 90.1849 102.402 90.7072Q101.879 90.9001 101.338 91.039Q100.798 91.1779 100.246 91.2615Q99.6948 91.3451 99.1376 91.3725Q98.5804 91.3999 98.0233 91.3708Q97.4662 91.3417 96.9148 91.2565Q96.3635 91.1712 95.8236 91.0306Q95.2838 90.8901 94.7609 90.6956Q94.238 90.5012 93.7374 90.2549C90.7155 88.7427 88.594 85.8507 87.5736 82.6766C86.4216 79.0933 86.5701 74.9913 88.3535 71.6383C90.0938 68.3662 92.9 66.5994 96.3503 65.5861Z"/>
	<path fill="#68308C" d="M97.4899 71.2362C98.8329 71.0562 100.349 70.9636 101.644 71.416C103.398 72.0285 104.835 73.4318 105.589 75.1157C106.543 77.2463 106.65 79.9915 105.758 82.1589C104.892 84.265 103.52 85.1177 101.478 85.939C100.34 86.0053 99.0041 86.1391 97.8914 85.8658C96.0983 85.4255 94.3835 84.1234 93.4671 82.5244Q93.2754 82.1886 93.1179 81.8355Q92.9604 81.4824 92.8385 81.1154Q92.7167 80.7484 92.6318 80.3712Q92.5469 79.994 92.4997 79.6102Q92.4525 79.2265 92.4436 78.8399Q92.4346 78.4533 92.4639 78.0678Q92.4932 77.6822 92.5605 77.3015Q92.6278 76.9207 92.7325 76.5485C93.4762 73.9519 95.2325 72.4892 97.4899 71.2362Z"/>
	<path fill="#FDFAFC" d="M248.824 65.6035C252.313 65.4067 255.357 65.6527 258.409 67.5916C261.27 69.4085 263.269 72.1734 263.983 75.4974Q264.119 76.1324 264.19 76.7778Q264.262 77.4232 264.268 78.0725Q264.275 78.7218 264.217 79.3685Q264.159 80.0152 264.036 80.6529Q263.914 81.2906 263.729 81.9129Q263.543 82.5352 263.296 83.1358Q263.05 83.7365 262.744 84.3095Q262.439 84.8825 262.078 85.4222C259.975 88.5785 256.82 90.4715 253.147 91.1866C249.846 91.333 246.861 91.1798 243.912 89.4584C240.939 87.7225 238.964 84.8768 238.122 81.5604C237.301 78.3246 237.546 74.7681 239.284 71.8652C241.442 68.26 244.902 66.5753 248.824 65.6035Z"/>
	<path fill="#68308C" d="M250.597 71.857C252.019 71.942 253.298 71.9971 254.512 72.8103C255.984 73.796 256.913 75.4484 257.201 77.1734C257.524 79.1052 257.139 81.0795 255.965 82.6637C254.641 84.4503 253.001 84.7953 250.928 85.0958C249.663 85.0106 248.548 84.842 247.473 84.1211Q247.187 83.9294 246.921 83.7101Q246.655 83.4908 246.412 83.2461Q246.169 83.0014 245.952 82.7336Q245.735 82.4659 245.546 82.1778Q245.357 81.8897 245.197 81.5842Q245.038 81.2787 244.91 80.9588Q244.781 80.6389 244.686 80.3077Q244.59 79.9766 244.528 79.6376Q244.464 79.3101 244.434 78.9779Q244.404 78.6456 244.408 78.312Q244.412 77.9784 244.449 77.6469Q244.487 77.3154 244.559 76.9895Q244.63 76.6636 244.735 76.3468Q244.839 76.0299 244.975 75.7253Q245.112 75.4207 245.278 75.1317Q245.445 74.8426 245.64 74.572C246.909 72.8184 248.539 72.2151 250.597 71.857Z"/>
	<path fill="#FDFAFC" d="M44.4731 56.472C49.2471 55.9396 53.4987 57.7641 57.1809 60.6382C55.6753 62.0542 54.3127 63.4611 53.0432 65.0942C50.8976 63.2986 48.9865 62.042 46.0647 62.0889C44.4842 62.1143 42.766 62.7734 41.6945 63.9605C41.1092 64.609 40.6738 65.514 40.7915 66.4075C41.2745 70.0757 51.5355 72.1456 54.5234 74.6709C56.1163 76.0172 57.2579 77.7514 57.4116 79.8708C57.5985 82.4471 56.4775 85.7142 54.7727 87.6486C52.4788 90.2517 49.4168 90.984 46.1191 91.2386Q45.3083 91.2394 44.4986 91.1988C40.0113 90.9619 36.7681 88.9251 33.8352 85.656C34.9317 84.0236 36.1859 82.5771 37.484 81.1039C38.7833 82.299 40.0965 83.6183 41.6192 84.5266C43.4986 85.6477 46.0595 86.3517 48.2286 85.74C49.1378 85.4836 50.3103 84.7305 50.7226 83.8582C51.2298 82.7853 51.3425 80.9964 50.9842 79.8718C49.9895 76.7497 43.1128 75.591 40.3498 74.1068C38.2527 72.9803 36.4876 71.4305 35.8126 69.0719C35.1129 66.6272 35.3749 63.8278 36.6401 61.6132C38.4016 58.53 41.2291 57.3623 44.4731 56.472Z"/>
	<path fill="#FDFAFC" d="M138.333 56.9068C138.528 56.9094 138.703 57.0919 138.862 57.201C138.888 63.6489 138.942 70.1222 138.703 76.5659C142.453 73.2423 145.896 69.4667 149.405 65.8896C152.045 65.934 154.658 66.0732 157.29 66.2783C152.816 69.9657 148.939 74.1659 144.983 78.3826Q148.13 82.5801 151.705 86.4193C153.072 87.9604 154.559 89.4067 156.004 90.8755C153.62 90.9348 151.267 90.9306 148.885 90.8112C145.364 87.927 142.221 83.8066 139.154 80.4076C138.716 83.7327 138.716 87.1732 138.565 90.5244L133.256 90.6825C133.155 79.4838 132.869 68.225 133.193 57.0313L138.333 56.9068Z"/>
	<path fill="#FDFAFC" d="M223.666 59.9931C225.813 59.9253 227.974 59.9816 230.123 59.9919L230.41 66.1111L235.352 65.8839L235.338 72.3062C233.618 72.3118 231.889 72.4007 230.168 72.4496C230.149 76.4327 230.07 80.4611 230.505 84.4241L235.31 84.5021L235.512 90.8997C234.536 91.0667 233.395 91.0177 232.398 91.0075C229.819 90.9812 227.489 90.5572 225.631 88.5933C221.89 84.6378 222.981 77.3664 223.138 72.3937C221.795 72.3701 220.447 72.2544 219.107 72.1731L219.24 65.985L223.474 66.0043Q223.519 62.9971 223.666 59.9931Z"/>
	<path fill="#FDFAFC" d="M205.689 59.8953C207.947 59.7862 210.222 59.8092 212.483 59.7812L212.566 65.8139C214.376 65.8129 216.192 65.8885 218.002 65.9345C218.048 68.0315 218.012 70.1369 218.014 72.2348L212.572 72.4542C212.497 76.4523 212.498 80.3831 213.013 84.3556C214.682 84.5516 216.412 84.5254 218.093 84.577L218.036 89.2683C218.041 89.8511 217.933 90.1868 217.658 90.698C216.485 91.1127 214.892 91.0156 213.659 90.8916C201.239 89.6427 207.701 75.6483 204.87 72.1694C204.677 72.1898 204.484 72.2105 204.29 72.2222C203.777 72.2535 203.251 72.3059 202.872 71.9312C201.718 70.7893 202.133 68.2902 202.181 66.7919L205.483 66.4656L205.689 59.8953Z"/>
	<path fill="#FDFAFC" d="M129.881 65.6235L130.445 65.7808C131.029 67.3358 130.766 69.7908 130.78 71.4759C128.138 71.6181 125.534 71.6387 123.587 73.7165C120.531 76.9781 121.825 86.5475 121.901 90.9511C120.438 90.9405 117.528 91.2488 116.387 90.5013L116.308 66.1721C117.949 66.1458 119.904 65.5769 121.295 66.6025C121.333 67.1076 121.404 67.5297 121.555 68.0137C122.998 68.1514 125.273 66.4983 126.776 66.0633C127.762 65.7781 128.86 65.7127 129.881 65.6235Z"/>
</svg>
